<?xml version="1.0" encoding="UTF-8" standalone="no"?>
<svg version="1.1" xmlns="http://www.w3.org/2000/svg" style="font-family: Arial; " width="600" height="500" viewBox="0 0 600 500"><title>Untitled chart</title><defs><clipPath id="chart-clipPath-exact"><rect height="399" width="457"></rect></clipPath><clipPath id="chart-clipPath-buffer"><rect x="-10" y="-10" height="419" width="477"></rect></clipPath></defs><g class="scaler"><rect width="600" height="500" fill="rgb(255, 255, 255)" fill-opacity="1"></rect><g class="canvas" transform="translate(85,25)"><g class="grid"><g class="axis-grid y" transform="translate(0,0)"><line class="grid" x1="0" x2="456" y1="0" y2="0" style="stroke: #666666; stroke-opacity: 0.3; stroke-width: 1px; " transform="translate(0,399)"></line><line class="grid" x1="0" x2="456" y1="0" y2="0" style="stroke: #666666; stroke-opacity: 0.3; stroke-width: 1px; " transform="translate(0,326.9334190380429)"></line><line class="grid" x1="0" x2="456" y1="0" y2="0" style="stroke: #666666; stroke-opacity: 0.3; stroke-width: 1px; " transform="translate(0,257.1035302193852)"></line><line class="grid" x1="0" x2="456" y1="0" y2="0" style="stroke: #666666; stroke-opacity: 0.3; stroke-width: 1px; " transform="translate(0,191.35561269202861)"></line><line class="grid" x1="0" x2="456" y1="0" y2="0" style="stroke: #666666; stroke-opacity: 0.3; stroke-width: 1px; " transform="translate(0,135.5778063460143)"></line><line class="grid" x1="0" x2="456" y1="0" y2="0" style="stroke: #666666; stroke-opacity: 0.3; stroke-width: 1px; " transform="translate(0,83.45144774674185)"></line><line class="grid" x1="0" x2="456" y1="0" y2="0" style="stroke: #666666; stroke-opacity: 0.3; stroke-width: 1px; " transform="translate(0,12.361176406862342)"></line></g><g class="axis-grid y2" transform="translate(456.5,0)"></g><g class="axis-grid x" transform="translate(0,399)"></g><g class="axis-grid x2" transform="translate(0,1)"></g></g><rect class="trigger-layer" height="450" width="500" opacity="0"></rect><g class="chart"><g class="series s0"><g class="bar"><rect fill="rgb(87, 176, 255)" opacity="1" x="28.5" width="57" y="243.6065257547117" height="155.3934742452883" clip-path="url(#chart-clipPath-exact)"></rect></g><g class="bar"><rect fill="rgb(87, 176, 255)" opacity="1" x="171" width="57" y="349.33905066545924" height="49.66094933454076" clip-path="url(#chart-clipPath-exact)"></rect></g><g class="bar"><rect fill="rgb(87, 176, 255)" opacity="1" x="313.5" width="57" y="271.82925901126305" height="127.17074098873695" clip-path="url(#chart-clipPath-exact)"></rect></g><text class="data-label" font-size="14" fill="rgb(0, 0, 0)" fill-opacity="1" visibility="visible" text-anchor="middle" transform="translate(57,216.6065257547117)"><tspan x="0" y="0" dy="0.91em">88.57</tspan></text><text class="data-label" font-size="14" fill="rgb(0, 0, 0)" fill-opacity="1" visibility="visible" text-anchor="middle" transform="translate(199.5,322.33905066545924)"><tspan x="0" y="0" dy="0.91em">4.19</tspan></text><text class="data-label" font-size="14" fill="rgb(0, 0, 0)" fill-opacity="1" visibility="visible" text-anchor="middle" transform="translate(342,244.82925901126305)"><tspan x="0" y="0" dy="0.91em">39.23</tspan></text></g><g class="series s1"><g class="bar"><rect fill="rgb(0, 0, 255)" opacity="1" x="85.5" width="57" y="44.34030137264904" height="354.65969862735096" clip-path="url(#chart-clipPath-exact)"></rect></g><g class="bar"><rect fill="rgb(0, 0, 255)" opacity="1" x="228" width="57" y="328.64274136776953" height="70.35725863223047" clip-path="url(#chart-clipPath-exact)"></rect></g><g class="bar"><rect fill="rgb(0, 0, 255)" opacity="1" x="370.5" width="57" y="250.97794081983312" height="148.02205918016688" clip-path="url(#chart-clipPath-exact)"></rect></g><text class="data-label" font-size="14" fill="rgb(0, 0, 0)" fill-opacity="1" visibility="visible" text-anchor="middle" transform="translate(114,17.340301372649037)"><tspan x="0" y="0" dy="0.91em">27.82K</tspan></text><text class="data-label" font-size="14" fill="rgb(0, 0, 0)" fill-opacity="1" visibility="visible" text-anchor="middle" transform="translate(256.5,301.64274136776953)"><tspan x="0" y="0" dy="0.91em">7.62</tspan></text><text class="data-label" font-size="14" fill="rgb(0, 0, 0)" fill-opacity="1" visibility="visible" text-anchor="middle" transform="translate(399,223.97794081983312)"><tspan x="0" y="0" dy="0.91em">71.6</tspan></text></g></g><g class="axes"><g class="axis-labels"><g class="left"><g class="label" transform="translate(-60,199.5)"><text style="text-anchor: middle; font-family: Arial; font-size: 16px; " fill="rgb(102, 102, 102)" dy="16" transform="rotate(270)">Execution Time (ms)</text></g></g><g class="right"><g class="label" transform="translate(490.5,199.5)"><text style="text-anchor: middle; font-family: Arial; font-size: 14px; " fill="rgb(102, 102, 102)" dy="14" transform="rotate(90)">Memory Footprint (MB)</text></g></g></g><g class="axis left" transform="translate(0,0)"><g class="tick major" style="opacity: 1; display: block; " transform="translate(0,399)"><line x2="-6" y2="0"></line><text x="-9" y="0" dy="7" style="fill: #666666; fill-opacity: 1; font-family: Arial; font-size: 14px; text-anchor: end; " transform="rotate(0, -9, 0)translate(0,0)" data-org-x="-9" data-org-y="0">1</text></g><g class="tick major" style="opacity: 1; display: block; " transform="translate(0,326.9334190380429)"><line x2="-6" y2="0"></line><text x="-9" y="0" dy="7" style="fill: #666666; fill-opacity: 1; font-family: Arial; font-size: 14px; text-anchor: end; " transform="rotate(0, -9, 0)translate(0,0)" data-org-x="-9" data-org-y="0">8</text></g><g class="tick major" style="opacity: 1; display: block; " transform="translate(0,257.1035302193852)"><line x2="-6" y2="0"></line><text x="-9" y="0" dy="7" style="fill: #666666; fill-opacity: 1; font-family: Arial; font-size: 14px; text-anchor: end; " transform="rotate(0, -9, 0)translate(0,0)" data-org-x="-9" data-org-y="0">60</text></g><g class="tick major" style="opacity: 1; display: block; " transform="translate(0,191.35561269202861)"><line x2="-6" y2="0"></line><text x="-9" y="0" dy="7" style="fill: #666666; fill-opacity: 1; font-family: Arial; font-size: 14px; text-anchor: end; " transform="rotate(0, -9, 0)translate(0,0)" data-org-x="-9" data-org-y="0">400</text></g><g class="tick major" style="opacity: 1; display: block; " transform="translate(0,135.5778063460143)"><line x2="-6" y2="0"></line><text x="-9" y="0" dy="7" style="fill: #666666; fill-opacity: 1; font-family: Arial; font-size: 14px; text-anchor: end; " transform="rotate(0, -9, 0)translate(0,0)" data-org-x="-9" data-org-y="0">2K</text></g><g class="tick major" style="opacity: 1; display: block; " transform="translate(0,83.45144774674185)"><line x2="-6" y2="0"></line><text x="-9" y="0" dy="7" style="fill: #666666; fill-opacity: 1; font-family: Arial; font-size: 14px; text-anchor: end; " transform="rotate(0, -9, 0)translate(0,0)" data-org-x="-9" data-org-y="0">9K</text></g><g class="tick major" style="opacity: 1; display: block; " transform="translate(0,12.361176406862342)"><line x2="-6" y2="0"></line><text x="-9" y="0" dy="7" style="fill: #666666; fill-opacity: 1; font-family: Arial; font-size: 14px; text-anchor: end; " transform="rotate(0, -9, 0)translate(0,0)" data-org-x="-9" data-org-y="0">70K</text></g><path class="domain" d="M0,0H0V399H0" stroke-width="0" fill="none" stroke="rgb(188, 188, 188)" stroke-opacity="1"></path></g><g class="axis right" transform="translate(456.5,0)"><path class="domain" d="M0,0H0V399H0" stroke-width="1" fill="none" stroke="rgb(188, 188, 188)" stroke-opacity="1"></path></g><g class="axis bottom" transform="translate(0,399)"><g class="tick major" style="opacity: 1; display: block; " transform="translate(85.5,0)"><line y2="6" x2="0"></line><text y="9" x="0" dy="7" style="fill: #666666; fill-opacity: 1; font-family: Arial; font-size: 14px; text-anchor: middle; " transform="rotate(0, 0, 9)translate(0,0)" data-org-x="0" data-org-y="9">Asset Loading Time</text></g><g class="tick major" style="opacity: 1; display: block; " transform="translate(228,0)"><line y2="6" x2="0"></line><text y="9" x="0" dy="7" style="fill: #666666; fill-opacity: 1; font-family: Arial; font-size: 14px; text-anchor: middle; " transform="rotate(0, 0, 9)translate(0,0)" data-org-x="0" data-org-y="9">Rendering Time</text></g><g class="tick major" style="opacity: 1; display: block; " transform="translate(370.5,0)"><line y2="6" x2="0"></line><text y="9" x="0" dy="7" style="fill: #666666; fill-opacity: 1; font-family: Arial; font-size: 14px; text-anchor: middle; " transform="rotate(0, 0, 9)translate(0,0)" data-org-x="0" data-org-y="9">Memory Cost</text></g><path class="domain" d="M0,0V0H456V0" stroke-width="0" fill="none" stroke="rgb(188, 188, 188)" stroke-opacity="1"></path><path class="filler" d="M0,0V0H0V0" stroke-width="0" fill="none" stroke="rgb(188, 188, 188)" stroke-opacity="1"></path></g></g></g><g class="label" transform="translate(300,475)"><text style="text-anchor: start; font-family: Arial; font-size: 22px; " fill="rgb(102, 102, 102)" dy="22" transform="rotate(0)"></text></g><g class="legend" transform="translate(148.10134887695313,458.8613471984863)"><g class="row" transform="translate(0,0)"><text class="key" style="font-size: 14px; fill: #666666; fill-opacity: 1; " dx="28" dy="14">CS Tessellation</text><path class="shape" d="M0,7.898654169668588A7.898654169668588,7.898654169668588 0 1,1 0,-7.898654169668588A7.898654169668588,7.898654169668588 0 1,1 0,7.898654169668588Z" style="fill: #57b0ff; fill-opacity: 1; " transform="translate(14,9.24)"></path></g><g class="row" transform="translate(134.89865112304688,0)"><text class="key" style="font-size: 14px; fill: #666666; fill-opacity: 1; " dx="28" dy="14">Original Detailed Model</text><path class="shape" d="M0,7.898654169668588A7.898654169668588,7.898654169668588 0 1,1 0,-7.898654169668588A7.898654169668588,7.898654169668588 0 1,1 0,7.898654169668588Z" style="fill: #0000ff; fill-opacity: 1; " transform="translate(14,9.24)"></path></g></g></g></svg>